<?xml version="1.0" encoding="utf-8"?>
<!-- Svg Vector Icons : http://www.onlinewebfonts.com/icon -->
<!DOCTYPE svg PUBLIC "-//W3C//DTD SVG 1.1//EN" "http://www.w3.org/Graphics/SVG/1.1/DTD/svg11.dtd">
<svg version="1.1" xmlns="http://www.w3.org/2000/svg" xmlns:xlink="http://www.w3.org/1999/xlink" x="0px" y="0px" viewBox="0 0 1000 1000" enable-background="new 0 0 1000 1000" xml:space="preserve">
<metadata> </metadata>
<g><g transform="translate(0.000000,511.000000) scale(0.100000,-0.100000)"><path d="M1325,2228.8L100,110l1225-2118.8l1222.6-2118.8H5000h2452.4L8675-2008.8L9900,110l-694.1,1200.6c-379.9,657.6-930.3,1612.2-1222.6,2118.8l-530.9,918.1H5000H2547.6L1325,2228.8z M8341.4,2034L9451.9,110l-706.3-1225c-387.2-672.2-888.9-1536.7-1110.5-1921.5l-404.3-701.4H5000H2766.7L1656.2-1814L545.7,110l1110.5,1924l1110.5,1924H5000h2233.3L8341.4,2034z"/></g></g>
</svg>